<svg version="1.1" id="Layer_1" xmlns="http://www.w3.org/2000/svg" xmlns:xlink="http://www.w3.org/1999/xlink" x="0px" y="0px"
	 width="100%" viewBox="0 0 1024 1024" enable-background="new 0 0 1024 1024" xml:space="preserve">
<path fill="#061724" opacity="1.000000" stroke="none" 
	d="
M568.000000,1025.000000 
	C378.666656,1025.000000 189.833328,1025.000000 1.000000,1025.000000 
	C1.000000,683.666687 1.000000,342.333344 1.000000,1.000000 
	C342.333344,1.000000 683.666687,1.000000 1025.000000,1.000000 
	C1025.000000,342.333344 1025.000000,683.666687 1025.000000,1025.000000 
	C872.833313,1025.000000 720.666687,1025.000000 568.000000,1025.000000 
M801.900696,509.326508 
	C802.208923,507.003937 802.517212,504.681396 802.719116,501.885040 
	C802.735474,501.549591 802.848450,501.250641 803.588013,500.664001 
	C803.613647,499.395142 803.639221,498.126282 803.645264,496.073090 
	C803.821289,495.042816 803.997375,494.012512 804.639893,492.707092 
	C804.697449,491.783234 804.755005,490.859375 804.759460,489.192200 
	C804.880859,488.458130 805.002319,487.724030 805.646790,486.647064 
	C805.632202,485.359741 805.617615,484.072388 805.639038,482.076599 
	C805.777649,481.383545 805.916321,480.690491 806.655884,479.560333 
	C807.067383,478.684998 807.774231,477.832886 807.845032,476.930786 
	C808.621704,467.045135 809.428711,457.158173 809.926331,447.256470 
	C810.080322,444.191956 809.319641,441.081482 808.848938,437.083069 
	C808.953613,433.714111 809.058289,430.345184 809.529785,426.790070 
	C809.411438,426.201233 809.293091,425.612366 809.063721,424.265686 
	C809.105530,423.503113 809.147339,422.740540 809.737610,421.555420 
	C809.546448,419.042358 809.355286,416.529297 809.033142,413.084930 
	C809.076172,402.051086 809.119263,391.017242 809.743652,379.518158 
	C811.457520,373.291290 812.282471,367.092133 809.034668,360.144470 
	C809.078491,358.091827 809.122253,356.039154 809.746460,353.519104 
	C810.139954,352.458069 810.867920,351.399445 810.875549,350.335632 
	C810.960693,338.531219 810.989441,326.725372 810.860107,314.921844 
	C810.845825,313.614502 809.757141,312.318939 809.039795,310.343323 
	C809.081665,309.889618 809.123596,309.435913 809.746399,308.516693 
	C810.127808,307.621979 810.832703,306.730225 810.840942,305.832092 
	C810.927856,296.361298 810.962708,286.888702 810.832947,277.419067 
	C810.817383,276.277374 809.745483,275.150177 809.031799,273.131226 
	C809.076538,270.746826 809.121277,268.362396 809.655151,265.670898 
	C809.491394,264.453735 809.327576,263.236572 809.030884,261.174774 
	C808.364075,258.850739 807.697266,256.526733 806.266052,253.933151 
	C780.887512,248.644730 755.512146,243.341034 730.129822,238.070786 
	C656.566406,222.796463 586.578918,197.420425 519.659668,163.433975 
	C516.498413,161.828461 514.151917,161.794983 510.969971,163.382584 
	C455.768738,190.924240 398.856873,214.216187 338.869781,229.008072 
	C300.802643,238.394867 262.279572,245.932831 223.347916,254.275558 
	C222.931824,254.845245 222.515732,255.414932 221.991318,256.861145 
	C221.927948,258.919617 221.864563,260.978088 221.628983,263.408386 
	C221.686584,263.926666 221.744202,264.444977 221.917587,265.871796 
	C221.979538,268.923950 222.041489,271.976074 222.018585,275.811920 
	C222.047791,276.861267 222.077011,277.910614 221.984406,279.868835 
	C221.925400,282.924835 221.866394,285.980865 221.517487,289.691650 
	C221.613434,291.781830 221.709366,293.872040 221.928833,296.648468 
	C221.988190,297.108734 222.047562,297.568970 222.021332,298.759460 
	C222.049866,299.492950 222.078384,300.226440 221.985031,301.894928 
	C221.925095,308.275513 221.865173,314.656128 221.569427,321.500092 
	C221.647400,322.320984 221.725388,323.141876 221.919800,324.802124 
	C221.982437,326.211212 222.045090,327.620331 222.022110,329.812836 
	C222.049591,330.862061 222.077087,331.911316 221.982086,333.850281 
	C222.023758,336.243103 222.065430,338.635925 222.022781,341.759247 
	C222.050812,342.492889 222.078857,343.226562 221.983017,344.860413 
	C222.023605,347.582336 222.064194,350.304260 222.037125,353.496216 
	C222.037125,353.496216 222.103363,353.966431 221.981064,354.726868 
	C222.020859,355.493744 222.060654,356.260651 222.016632,357.957916 
	C222.043823,365.959534 222.071014,373.961151 221.982498,382.647003 
	C222.021500,383.106354 222.060516,383.565674 222.033371,384.496124 
	C222.033371,384.496124 222.101883,384.966858 221.986847,385.651093 
	C222.026230,386.110321 222.065613,386.569519 222.020264,387.812347 
	C222.048645,388.861633 222.077026,389.910950 221.982803,391.768372 
	C222.022507,392.855133 222.062210,393.941864 222.016205,395.847748 
	C222.044815,397.218933 222.073425,398.590088 221.985840,400.647034 
	C222.024887,401.107422 222.063919,401.567841 222.017441,402.918579 
	C222.044647,405.599945 222.071838,408.281342 221.977585,411.852112 
	C222.018295,414.243835 222.059006,416.635590 222.014832,419.758789 
	C222.042801,420.493469 222.070770,421.228149 221.978470,422.724335 
	C222.018890,423.491943 222.059311,424.259552 222.015930,425.758392 
	C222.045303,426.492645 222.074661,427.226898 221.984497,428.869965 
	C221.931229,431.924622 221.877960,434.979309 221.540115,438.618500 
	C221.646683,440.068054 221.753250,441.517639 222.018143,443.761780 
	C222.017410,444.837677 222.016678,445.913605 221.651794,447.730438 
	C221.456863,448.530243 221.039597,449.347321 221.100128,450.127289 
	C222.097076,462.969116 223.126633,475.808716 224.261932,488.638824 
	C224.334885,489.463257 225.329346,490.206116 226.108627,491.620239 
	C226.111435,492.062408 226.114258,492.504578 225.796432,493.471436 
	C226.139740,494.641724 226.483063,495.811981 226.979691,497.650513 
	C226.963409,498.105469 226.947128,498.560455 226.890030,499.261566 
	C226.863464,499.510590 226.893097,499.754761 227.074173,500.653473 
	C227.063522,501.096130 227.052887,501.538818 226.872864,502.372955 
	C227.200638,502.909454 227.528412,503.445953 228.079483,504.787140 
	C228.060455,506.170410 228.041443,507.553711 228.018448,509.666443 
	C228.587982,511.100739 229.157516,512.535034 229.997375,514.740417 
	C230.270462,515.874451 230.578964,517.001221 230.811584,518.143494 
	C242.806015,577.042419 267.266388,630.269775 303.658936,678.043884 
	C359.258667,751.031982 430.835876,804.988403 509.325592,850.738281 
	C513.280640,853.043640 516.296021,852.883667 520.176270,850.661194 
	C561.028870,827.263977 599.865967,800.886597 635.994507,770.739014 
	C684.159546,730.547424 726.390198,685.058411 757.515808,630.063293 
	C777.756348,594.300903 792.015991,556.323425 799.999390,515.181763 
	C799.955627,514.138062 799.911804,513.094360 799.990906,511.594635 
	C799.990906,511.594635 800.036072,511.124481 800.576477,510.842651 
	C800.860840,510.311279 801.145203,509.779877 801.900696,509.326508 
z"/>
<path fill="#53C839" opacity="1.000000" stroke="none" 
	d="
M222.099716,425.027161 
	C222.059311,424.259552 222.018890,423.491943 222.189468,422.120056 
	C222.300217,420.686279 222.199966,419.856781 222.099716,419.027313 
	C222.059006,416.635590 222.018295,414.243835 222.226913,411.072327 
	C222.351807,407.537781 222.227371,404.783020 222.102951,402.028229 
	C222.063919,401.567841 222.024887,401.107422 222.219208,400.023743 
	C222.335693,397.943207 222.218796,396.485901 222.101913,395.028625 
	C222.062210,393.941864 222.022507,392.855133 222.209717,391.108154 
	C222.326080,389.308228 222.215546,388.168488 222.104996,387.028748 
	C222.065613,386.569519 222.026230,386.110321 222.078125,385.191956 
	C222.221542,384.493164 222.198257,384.257233 222.099518,384.025024 
	C222.060516,383.565674 222.021500,383.106354 222.235123,381.943298 
	C222.358658,373.168884 222.229553,365.098206 222.100464,357.027527 
	C222.060654,356.260651 222.020859,355.493744 222.075409,354.229858 
	C222.221390,353.494171 222.199738,353.258606 222.104797,353.026184 
	C222.064194,350.304260 222.023605,347.582336 222.192444,344.185944 
	C222.303604,342.683899 222.205338,341.856323 222.107086,341.028748 
	C222.065430,338.635925 222.023758,336.243103 222.209595,333.149658 
	C222.327316,331.309143 222.217529,330.169281 222.107727,329.029419 
	C222.045090,327.620331 221.982437,326.211212 221.905426,324.017944 
	C221.862457,322.501404 221.833847,321.769073 221.805237,321.036713 
	C221.865173,314.656128 221.925095,308.275513 222.193222,301.203094 
	C222.303253,299.683929 222.205093,298.856567 222.106934,298.029236 
	C222.047562,297.568970 221.988190,297.108734 221.910995,295.874084 
	C221.864563,293.078766 221.835968,291.057800 221.807373,289.036865 
	C221.866394,285.980865 221.925400,282.924835 222.211029,279.158142 
	C222.326233,277.307739 222.214828,276.167969 222.103424,275.028229 
	C222.041489,271.976074 221.979538,268.923950 221.901794,265.097290 
	C221.857727,263.894012 221.829453,263.465302 221.801178,263.036560 
	C221.864563,260.978088 221.927948,258.919617 222.298737,256.350037 
	C223.057770,255.325912 223.509369,254.812912 223.960968,254.299927 
	C262.279572,245.932831 300.802643,238.394867 338.869781,229.008072 
	C398.856873,214.216187 455.768738,190.924240 510.969971,163.382584 
	C514.151917,161.794983 516.498413,161.828461 519.659668,163.433975 
	C586.578918,197.420425 656.566406,222.796463 730.129822,238.070786 
	C755.512146,243.341034 780.887512,248.644730 806.739990,254.461731 
	C807.458557,257.963104 807.913635,260.935699 807.916321,263.908691 
	C807.959961,312.661102 807.931519,361.413574 807.987244,410.165924 
	C807.990234,412.773865 808.593262,415.381134 808.985168,418.383484 
	C809.098572,419.844849 809.143860,420.911407 809.189148,421.977966 
	C809.147339,422.740540 809.105530,423.503113 809.068115,424.968445 
	C809.102661,426.106232 809.132812,426.541229 809.162964,426.976227 
	C809.058289,430.345184 808.953613,433.714111 808.824341,437.952332 
	C808.493591,443.557831 808.187500,448.294037 807.743896,453.223175 
	C807.443665,453.688324 807.257019,453.943054 807.054565,454.490936 
	C807.006714,455.210358 806.950928,455.619110 806.722046,456.389343 
	C805.802673,463.833557 805.092773,470.920288 804.300842,477.997864 
	C803.250183,487.386932 802.135559,496.768860 801.055420,506.365112 
	C801.062378,506.576385 801.009338,506.995819 800.821411,507.301392 
	C800.434326,508.779480 800.235168,509.951996 800.036072,511.124481 
	C800.036072,511.124481 799.990906,511.594635 799.773926,512.077087 
	C799.641235,513.689270 799.725586,514.819031 799.809875,515.948730 
	C792.015991,556.323425 777.756348,594.300903 757.515808,630.063293 
	C726.390198,685.058411 684.159546,730.547424 635.994507,770.739014 
	C599.865967,800.886597 561.028870,827.263977 520.176270,850.661194 
	C516.296021,852.883667 513.280640,853.043640 509.325592,850.738281 
	C430.835876,804.988403 359.258667,751.031982 303.658936,678.043884 
	C267.266388,630.269775 242.806015,577.042419 230.811584,518.143494 
	C230.578964,517.001221 230.270462,515.874451 229.864517,514.006592 
	C229.161911,511.827454 228.592148,510.382233 228.022400,508.936981 
	C228.041443,507.553711 228.060455,506.170410 227.990128,504.087860 
	C227.614578,502.919556 227.328400,502.450500 227.042236,501.981476 
	C227.052887,501.538818 227.063522,501.096130 227.066025,500.076599 
	C227.015533,499.338287 226.973175,499.176849 226.930847,499.015411 
	C226.947128,498.560455 226.963409,498.105469 226.932480,496.970734 
	C226.629196,495.176208 226.373123,494.061493 226.117065,492.946747 
	C226.114258,492.504578 226.111435,492.062408 226.021378,490.875916 
	C225.594086,487.329132 225.171417,484.533752 224.928452,481.722870 
	C223.927933,470.147644 222.981964,458.567719 222.015930,446.989502 
	C222.016678,445.913605 222.017410,444.837677 221.986725,442.955139 
	C221.911774,440.777008 221.868240,439.405487 221.824707,438.033966 
	C221.877960,434.979309 221.931229,431.924622 222.194824,428.191895 
	C222.303345,426.684937 222.201523,425.856049 222.099716,425.027161 
M743.267456,298.115173 
	C742.850403,298.125244 742.433350,298.135315 741.464539,297.902374 
	C741.292175,297.798920 741.119812,297.695496 740.524841,297.083771 
	C731.149048,294.821899 721.775635,292.549896 712.388977,290.334076 
	C712.000977,290.242493 711.488708,290.677490 710.260620,290.822815 
	C644.343384,273.760895 580.019165,252.129333 517.934021,224.015549 
	C516.188232,223.225006 513.426392,223.652435 511.510254,224.429367 
	C498.275909,229.795471 485.140503,235.405518 471.397766,240.638016 
	C470.276062,240.766510 469.078033,240.682693 468.043823,241.054535 
	C442.673676,250.176743 417.312500,259.324158 391.983215,268.558929 
	C390.205261,269.207153 388.686310,270.565643 386.356384,271.948090 
	C366.893219,277.731232 347.430084,283.514404 327.211639,289.360321 
	C323.091736,290.493561 318.971863,291.626801 314.129242,292.835388 
	C312.754700,293.218811 311.380157,293.602234 309.179993,293.968689 
	C303.392090,295.217224 297.604218,296.465759 291.187988,297.756836 
	C290.787048,297.879517 290.386108,298.002167 289.152618,298.072998 
	C284.751862,298.711456 280.351105,299.349884 275.350647,300.457306 
	C274.895660,302.326324 274.046234,304.194763 274.043549,306.064423 
	C273.978912,351.367981 273.925110,396.672028 274.098175,441.975067 
	C274.124603,448.898010 275.274689,455.816681 275.998718,463.282593 
	C276.006775,463.466858 276.014801,463.651123 276.012573,464.696136 
	C276.553925,466.850708 277.095276,469.005249 277.850586,471.988739 
	C281.687042,491.830658 284.674347,511.888336 289.643768,531.442322 
	C293.252747,545.643372 299.484009,559.178040 304.734222,573.642334 
	C314.255066,591.091064 323.775909,608.539795 333.639984,626.651733 
	C336.031281,630.258179 338.342468,633.920776 340.826202,637.462402 
	C368.343658,676.701538 402.269287,709.765320 440.362396,738.455811 
	C464.930206,756.959412 490.666443,773.911682 515.611694,791.372131 
	C543.941895,773.622559 571.156494,756.129028 595.561279,734.901123 
	C615.753052,717.337708 634.798950,698.456909 654.870667,679.794922 
	C655.638916,678.833008 656.407104,677.871033 657.704895,676.544495 
	C673.418762,659.618958 687.678894,641.567932 700.453369,621.553772 
	C701.325806,620.029053 702.198242,618.504333 703.002380,616.922485 
	C703.002380,616.922485 702.945068,616.990601 702.991333,617.053955 
	C702.991333,617.053955 703.135986,617.003906 703.672729,616.341675 
	C709.329712,605.848694 715.638123,595.646484 720.482666,584.790955 
	C726.874146,570.468994 732.117004,555.634521 738.126770,540.307617 
	C745.648010,517.738708 749.921631,494.464020 753.760925,470.533569 
	C754.215515,469.153351 754.957825,467.797943 755.079468,466.388947 
	C756.107727,454.471985 757.743652,442.551117 757.841248,430.620361 
	C758.181641,389.005524 758.004333,347.386230 757.899597,305.768921 
	C757.894714,303.819366 756.695740,301.872864 755.601013,299.363800 
	C751.696350,298.980652 747.791626,298.597473 743.267456,298.115173 
z"/>
<path fill="#5DE13D" opacity="1.000000" stroke="none" 
	d="
M808.916992,417.988708 
	C808.593262,415.381134 807.990234,412.773865 807.987244,410.165924 
	C807.931519,361.413574 807.959961,312.661102 807.916321,263.908691 
	C807.913635,260.935699 807.458557,257.963104 807.122192,254.596497 
	C807.697266,256.526733 808.364075,258.850739 809.046570,261.991028 
	C809.096802,263.864197 809.131409,264.921112 809.166016,265.977997 
	C809.121277,268.362396 809.076538,270.746826 809.046143,274.038879 
	C809.095520,286.291748 809.130554,297.636993 809.165527,308.982208 
	C809.123596,309.435913 809.081665,309.889618 809.052246,311.145630 
	C809.098511,325.960815 809.132263,339.973663 809.166016,353.986511 
	C809.122253,356.039154 809.078491,358.091827 809.048950,361.044922 
	C809.096313,367.958069 809.129333,373.970734 809.162354,379.983398 
	C809.119263,391.017242 809.076172,402.051086 809.046753,413.945801 
	C809.012573,415.867340 808.964783,416.928009 808.916992,417.988708 
z"/>
<path fill="#02041D" opacity="1.000000" stroke="none" 
	d="
M809.456299,353.752808 
	C809.132263,339.973663 809.098511,325.960815 809.115723,311.482941 
	C809.757141,312.318939 810.845825,313.614502 810.860107,314.921844 
	C810.989441,326.725372 810.960693,338.531219 810.875549,350.335632 
	C810.867920,351.399445 810.139954,352.458069 809.456299,353.752808 
z"/>
<path fill="#02041D" opacity="1.000000" stroke="none" 
	d="
M807.881409,453.030243 
	C808.187500,448.294037 808.493591,443.557831 808.888733,438.406830 
	C809.319641,441.081482 810.080322,444.191956 809.926331,447.256470 
	C809.428711,457.158173 808.621704,467.045135 807.845032,476.930786 
	C807.774231,477.832886 807.067383,478.684998 806.312195,479.320465 
	C806.277344,471.396332 806.586182,463.712097 806.895020,456.027832 
	C806.950928,455.619110 807.006714,455.210358 807.290833,454.374481 
	C807.639893,453.641632 807.760681,453.335938 807.881409,453.030243 
z"/>
<path fill="#02041D" opacity="1.000000" stroke="none" 
	d="
M221.833862,447.359985 
	C222.981964,458.567719 223.927933,470.147644 224.928452,481.722870 
	C225.171417,484.533752 225.594086,487.329132 225.914627,490.559265 
	C225.329346,490.206116 224.334885,489.463257 224.261932,488.638824 
	C223.126633,475.808716 222.097076,462.969116 221.100128,450.127289 
	C221.039597,449.347321 221.456863,448.530243 221.833862,447.359985 
z"/>
<path fill="#5DE13D" opacity="1.000000" stroke="none" 
	d="
M806.722046,456.389343 
	C806.586182,463.712097 806.277344,471.396332 806.011719,479.539001 
	C805.916321,480.690491 805.777649,481.383545 805.399658,482.719696 
	C805.148071,484.571838 805.135925,485.780914 805.123718,486.989960 
	C805.002319,487.724030 804.880859,488.458130 804.617798,489.834412 
	C804.375244,491.311829 804.274292,492.147034 804.173340,492.982239 
	C803.997375,494.012512 803.821289,495.042816 803.494751,496.779999 
	C803.248901,498.653992 803.153442,499.821106 803.057983,500.988190 
	C802.848450,501.250641 802.735474,501.549591 802.570435,502.427551 
	C801.963989,504.031342 801.506226,505.092590 801.048462,506.153870 
	C802.135559,496.768860 803.250183,487.386932 804.300842,477.997864 
	C805.092773,470.920288 805.802673,463.833557 806.722046,456.389343 
z"/>
<path fill="#02041D" opacity="1.000000" stroke="none" 
	d="
M809.455933,308.749451 
	C809.130554,297.636993 809.095520,286.291748 809.111938,274.481384 
	C809.745483,275.150177 810.817383,276.277374 810.832947,277.419067 
	C810.962708,286.888702 810.927856,296.361298 810.840942,305.832092 
	C810.832703,306.730225 810.127808,307.621979 809.455933,308.749451 
z"/>
<path fill="#02041D" opacity="1.000000" stroke="none" 
	d="
M809.453003,379.750793 
	C809.129333,373.970734 809.096313,367.958069 809.115112,361.480591 
	C812.282471,367.092133 811.457520,373.291290 809.453003,379.750793 
z"/>
<path fill="#5DE13D" opacity="1.000000" stroke="none" 
	d="
M222.058548,357.492737 
	C222.229553,365.098206 222.358658,373.168884 222.292969,381.601166 
	C222.071014,373.961151 222.043823,365.959534 222.058548,357.492737 
z"/>
<path fill="#02041D" opacity="1.000000" stroke="none" 
	d="
M808.985107,418.383484 
	C808.964783,416.928009 809.012573,415.867340 809.112183,414.411438 
	C809.355286,416.529297 809.546448,419.042358 809.463379,421.766693 
	C809.143860,420.911407 809.098572,419.844849 808.985107,418.383484 
z"/>
<path fill="#02041D" opacity="1.000000" stroke="none" 
	d="
M801.055420,506.365112 
	C801.506226,505.092590 801.963989,504.031342 802.623657,502.664429 
	C802.517212,504.681396 802.208923,507.003937 801.638000,509.054382 
	C801.253296,508.186768 801.131348,507.591278 801.009338,506.995819 
	C801.009338,506.995819 801.062378,506.576385 801.055420,506.365112 
z"/>
<path fill="#5DE13D" opacity="1.000000" stroke="none" 
	d="
M222.060196,402.473389 
	C222.227371,404.783020 222.351807,407.537781 222.287643,410.627625 
	C222.071838,408.281342 222.044647,405.599945 222.060196,402.473389 
z"/>
<path fill="#02041D" opacity="1.000000" stroke="none" 
	d="
M805.385254,486.818512 
	C805.135925,485.780914 805.148071,484.571838 805.381592,483.073914 
	C805.617615,484.072388 805.632202,485.359741 805.385254,486.818512 
z"/>
<path fill="#02041D" opacity="1.000000" stroke="none" 
	d="
M225.956757,493.209106 
	C226.373123,494.061493 226.629196,495.176208 226.855820,496.636597 
	C226.483063,495.811981 226.139740,494.641724 225.956757,493.209106 
z"/>
<path fill="#02041D" opacity="1.000000" stroke="none" 
	d="
M809.410583,265.824463 
	C809.131409,264.921112 809.096802,263.864197 809.113037,262.413330 
	C809.327576,263.236572 809.491394,264.453735 809.410583,265.824463 
z"/>
<path fill="#02041D" opacity="1.000000" stroke="none" 
	d="
M228.020416,509.301697 
	C228.592148,510.382233 229.161911,511.827454 229.729340,513.621033 
	C229.157516,512.535034 228.587982,511.100739 228.020416,509.301697 
z"/>
<path fill="#02041D" opacity="1.000000" stroke="none" 
	d="
M221.662430,289.364258 
	C221.835968,291.057800 221.864563,293.078766 221.849228,295.530945 
	C221.709366,293.872040 221.613434,291.781830 221.662430,289.364258 
z"/>
<path fill="#5DE13D" opacity="1.000000" stroke="none" 
	d="
M800.821411,507.301392 
	C801.131348,507.591278 801.253296,508.186768 801.402466,509.015381 
	C801.145203,509.779877 800.860840,510.311279 800.306274,510.983582 
	C800.235168,509.951996 800.434326,508.779480 800.821411,507.301392 
z"/>
<path fill="#02041D" opacity="1.000000" stroke="none" 
	d="
M803.322998,500.826111 
	C803.153442,499.821106 803.248901,498.653992 803.504578,497.172180 
	C803.639221,498.126282 803.613647,499.395142 803.322998,500.826111 
z"/>
<path fill="#02041D" opacity="1.000000" stroke="none" 
	d="
M804.406616,492.844666 
	C804.274292,492.147034 804.375244,491.311829 804.644409,490.206055 
	C804.755005,490.859375 804.697449,491.783234 804.406616,492.844666 
z"/>
<path fill="#5DE13D" opacity="1.000000" stroke="none" 
	d="
M222.059052,395.438171 
	C222.218796,396.485901 222.335693,397.943207 222.277313,399.680878 
	C222.073425,398.590088 222.044815,397.218933 222.059052,395.438171 
z"/>
<path fill="#02041D" opacity="1.000000" stroke="none" 
	d="
M221.682404,438.326233 
	C221.868240,439.405487 221.911774,440.777008 221.907562,442.557861 
	C221.753250,441.517639 221.646683,440.068054 221.682404,438.326233 
z"/>
<path fill="#5DE13D" opacity="1.000000" stroke="none" 
	d="
M222.061005,275.420074 
	C222.214828,276.167969 222.326233,277.307739 222.271927,278.703735 
	C222.077011,277.910614 222.047791,276.861267 222.061005,275.420074 
z"/>
<path fill="#5DE13D" opacity="1.000000" stroke="none" 
	d="
M223.654449,254.287750 
	C223.509369,254.812912 223.057770,255.325912 222.352905,255.911758 
	C222.515732,255.414932 222.931824,254.845245 223.654449,254.287750 
z"/>
<path fill="#02041D" opacity="1.000000" stroke="none" 
	d="
M809.346375,426.883148 
	C809.132812,426.541229 809.102661,426.106232 809.123596,425.347382 
	C809.293091,425.612366 809.411438,426.201233 809.346375,426.883148 
z"/>
<path fill="#5DE13D" opacity="1.000000" stroke="none" 
	d="
M799.904663,515.565247 
	C799.725586,514.819031 799.641235,513.689270 799.712463,512.305115 
	C799.911804,513.094360 799.955627,514.138062 799.904663,515.565247 
z"/>
<path fill="#02041D" opacity="1.000000" stroke="none" 
	d="
M226.957550,502.177216 
	C227.328400,502.450500 227.614578,502.919556 227.878479,503.685516 
	C227.528412,503.445953 227.200638,502.909454 226.957550,502.177216 
z"/>
<path fill="#5DE13D" opacity="1.000000" stroke="none" 
	d="
M222.062622,387.420532 
	C222.215546,388.168488 222.326080,389.308228 222.271011,390.704102 
	C222.077026,389.910950 222.048645,388.861633 222.062622,387.420532 
z"/>
<path fill="#5DE13D" opacity="1.000000" stroke="none" 
	d="
M222.064911,329.421143 
	C222.217529,330.169281 222.327316,331.309143 222.270844,332.704773 
	C222.077087,331.911316 222.049591,330.862061 222.064911,329.421143 
z"/>
<path fill="#5DE13D" opacity="1.000000" stroke="none" 
	d="
M222.064148,298.394348 
	C222.205093,298.856567 222.303253,299.683929 222.254150,300.735596 
	C222.078384,300.226440 222.049866,299.492950 222.064148,298.394348 
z"/>
<path fill="#5DE13D" opacity="1.000000" stroke="none" 
	d="
M222.057831,425.392761 
	C222.201523,425.856049 222.303345,426.684937 222.254593,427.737488 
	C222.074661,427.226898 222.045303,426.492645 222.057831,425.392761 
z"/>
<path fill="#02041D" opacity="1.000000" stroke="none" 
	d="
M221.687332,321.268402 
	C221.833847,321.769073 221.862457,322.501404 221.847214,323.598267 
	C221.725388,323.141876 221.647400,322.320984 221.687332,321.268402 
z"/>
<path fill="#5DE13D" opacity="1.000000" stroke="none" 
	d="
M222.057266,419.393066 
	C222.199966,419.856781 222.300217,420.686279 222.249603,421.739288 
	C222.070770,421.228149 222.042801,420.493469 222.057266,419.393066 
z"/>
<path fill="#5DE13D" opacity="1.000000" stroke="none" 
	d="
M222.064941,341.393982 
	C222.205338,341.856323 222.303604,342.683899 222.254364,343.735840 
	C222.078857,343.226562 222.050812,342.492889 222.064941,341.393982 
z"/>
<path fill="#02041D" opacity="1.000000" stroke="none" 
	d="
M221.715088,263.222473 
	C221.829453,263.465302 221.857727,263.894012 221.843903,264.643005 
	C221.744202,264.444977 221.686584,263.926666 221.715088,263.222473 
z"/>
<path fill="#02041D" opacity="1.000000" stroke="none" 
	d="
M226.910431,499.138489 
	C226.973175,499.176849 227.015533,499.338287 227.018417,499.746887 
	C226.893097,499.754761 226.863464,499.510590 226.910431,499.138489 
z"/>
<path fill="#5DE13D" opacity="1.000000" stroke="none" 
	d="
M222.066437,384.260559 
	C222.198257,384.257233 222.221542,384.493164 222.135651,384.849823 
	C222.101883,384.966858 222.033371,384.496124 222.066437,384.260559 
z"/>
<path fill="#5DE13D" opacity="1.000000" stroke="none" 
	d="
M222.070953,353.261200 
	C222.199738,353.258606 222.221390,353.494171 222.136566,353.849670 
	C222.103363,353.966431 222.037125,353.496216 222.070953,353.261200 
z"/>
<path fill="#061724" opacity="1.000000" stroke="none" 
	d="
M740.947510,297.592102 
	C741.119812,297.695496 741.292175,297.798920 741.835083,298.222107 
	C742.817810,298.665649 743.430054,298.789429 744.367554,298.921844 
	C745.121582,298.938843 745.550354,298.947205 746.105896,298.985748 
	C746.232605,299.015900 746.616394,299.053619 746.616394,299.053619 
	C746.616394,299.053619 747.002136,299.008362 747.380493,298.956604 
	C748.511780,299.002808 749.264709,299.100769 750.225098,299.470825 
	C754.391357,301.309021 755.202393,304.316925 755.097961,308.330719 
	C754.962585,313.535431 755.569397,318.759460 755.927246,324.391907 
	C755.950500,326.213409 755.903320,327.618164 755.711182,329.315521 
	C755.663269,331.064636 755.760254,332.521088 755.926147,334.429565 
	C755.948120,337.929108 755.901245,340.976685 755.700928,344.363892 
	C755.650208,347.127380 755.753113,349.551208 755.924744,352.376587 
	C755.948181,353.860382 755.902832,354.942627 755.695557,356.400818 
	C755.642151,363.510315 755.750671,370.243896 755.929932,377.413513 
	C755.953979,379.907043 755.907349,381.964539 755.704712,384.371094 
	C755.651978,387.472290 755.755249,390.224426 755.927979,393.377686 
	C755.951965,394.860199 755.906555,395.941589 755.699097,397.399078 
	C755.650513,404.842621 755.764038,411.910065 755.950073,419.442566 
	C755.079651,436.928986 754.136719,453.950378 753.193726,470.971741 
	C749.921631,494.464020 745.648010,517.738708 737.708618,540.829773 
	C727.487488,550.184570 715.322388,553.792480 702.610962,556.733887 
	C701.155090,556.570251 699.981506,556.380005 698.877563,556.577881 
	C678.135925,560.295288 657.477356,564.576660 636.635071,567.588928 
	C626.561707,569.044861 616.145569,568.101990 605.886047,568.314514 
	C602.940369,568.375427 599.999756,568.677856 596.651367,568.877808 
	C586.513611,566.160156 576.351318,564.447083 567.124695,560.530029 
	C530.389465,544.934265 512.045166,508.702698 521.004395,470.605835 
	C525.155762,452.953094 535.043762,438.861298 549.105164,427.165680 
	C550.274902,426.347443 551.135071,425.673096 552.224854,424.952332 
	C552.769043,424.783386 552.974365,424.560211 553.377014,424.119263 
	C554.561401,423.362885 555.439026,422.723633 556.573608,421.918396 
	C557.566833,421.513519 558.303101,421.274628 559.314270,421.143616 
	C562.050903,419.841248 564.512756,418.431030 567.222412,416.815491 
	C568.264038,416.303101 569.057861,415.996002 570.139404,415.854675 
	C575.128784,415.142426 579.850952,414.359283 584.523804,413.348358 
	C587.043396,412.803314 589.478638,411.868225 592.358826,411.048126 
	C593.860046,411.025818 594.954285,411.064484 596.383789,411.269867 
	C600.146973,411.599243 603.574951,411.761871 607.342468,411.942688 
	C608.131714,412.008820 608.581543,412.056763 609.120728,412.307800 
	C609.825623,412.619507 610.441040,412.728180 611.374817,412.840027 
	C612.112732,412.831177 612.532227,412.819153 613.194214,412.991211 
	C613.984009,413.429596 614.531433,413.683960 615.325745,413.985413 
	C615.734985,414.074219 615.897278,414.115845 616.385132,414.313416 
	C617.905334,414.613159 619.099854,414.756958 620.488403,414.896912 
	C620.682373,414.893036 621.034851,415.055206 621.145996,415.298950 
	C622.158386,415.727722 623.059692,415.912781 624.316650,416.145813 
	C628.501099,417.737701 632.329895,419.281677 636.752991,421.065308 
	C630.469177,391.379456 599.437622,354.256683 550.785156,341.988586 
	C550.078796,341.941071 549.550598,341.993286 548.795654,342.016144 
	C548.568848,341.986786 548.111816,341.968628 547.904175,341.664490 
	C518.583313,333.721344 489.359894,334.045746 459.661346,340.152405 
	C438.935303,344.442596 419.741028,351.769318 401.460541,361.602753 
	C373.382629,376.706482 348.967590,396.748749 325.469269,417.996735 
	C310.042328,431.946320 294.846741,446.151764 279.294220,459.889587 
	C278.691772,457.463135 278.440857,455.366882 277.966492,453.322540 
	C277.472565,451.193848 276.762909,449.115173 276.066010,446.600891 
	C276.018616,444.786194 276.052765,443.385254 276.255554,441.610016 
	C276.615326,430.107727 276.872986,418.980194 276.948212,407.851440 
	C276.965881,405.240479 276.366791,402.625366 275.968231,399.614868 
	C275.940613,398.141327 275.996246,397.065125 276.223999,395.615540 
	C276.598267,392.943939 276.972656,390.645966 276.976257,388.347412 
	C277.017853,361.637054 276.996033,334.926575 277.009186,308.216156 
	C277.012482,301.491974 277.487030,301.097900 284.149597,300.079071 
	C286.147675,299.773560 288.042847,298.795013 289.985168,298.124817 
	C290.386108,298.002167 290.787048,297.879517 291.815979,297.917786 
	C298.297882,296.714417 304.151733,295.350037 310.005615,293.985657 
	C311.380157,293.602234 312.754700,293.218811 314.793884,292.948181 
	C319.627960,291.806519 323.797455,290.552032 327.966919,289.297546 
	C347.430084,283.514404 366.893219,277.731232 387.057648,271.698120 
	C391.388672,270.280090 395.063629,269.235352 398.640930,267.924072 
	C423.096558,258.959717 447.531647,249.939438 471.973328,240.937164 
	C485.140503,235.405518 498.275909,229.795471 511.510254,224.429367 
	C513.426392,223.652435 516.188232,223.225006 517.934021,224.015549 
	C580.019165,252.129333 644.343384,273.760895 711.010254,290.956787 
	C720.958008,293.191620 730.156189,295.292450 739.333252,297.452332 
	C739.312195,297.511353 739.583496,297.451996 739.813599,297.445190 
	C740.335876,297.543030 740.637146,297.594269 740.947510,297.592102 
z"/>
<path fill="#0E69C8" opacity="1.000000" stroke="none" 
	d="
M553.070251,424.236450 
	C552.974365,424.560211 552.769043,424.783386 551.889038,425.024170 
	C550.481018,425.864807 549.638306,426.587189 548.795593,427.309570 
	C535.043762,438.861298 525.155762,452.953094 521.004395,470.605835 
	C512.045166,508.702698 530.389465,544.934265 567.124695,560.530029 
	C576.351318,564.447083 586.513611,566.160156 596.969360,568.964478 
	C598.118286,569.150818 598.543640,569.258728 598.774353,569.501831 
	C598.462097,569.744568 598.313965,569.833923 598.235779,569.964966 
	C598.160828,570.090637 598.158569,570.259644 598.124329,570.409607 
	C600.080017,570.277222 602.035706,570.144897 604.332642,569.969971 
	C605.124512,570.002075 605.575195,570.076721 606.253174,570.447632 
	C607.042419,571.077026 607.599854,571.691650 608.166809,571.700623 
	C615.466675,571.816467 622.768677,571.909668 630.067871,571.820984 
	C631.041992,571.809082 632.003540,570.764709 633.408936,570.104004 
	C657.332764,568.055298 680.201538,562.852539 702.925659,556.888000 
	C715.322388,553.792480 727.487488,550.184570 737.572144,541.186157 
	C732.117004,555.634521 726.874146,570.468994 720.482666,584.790955 
	C715.638123,595.646484 709.329712,605.848694 703.372498,616.680542 
	C703.072266,617.019348 702.945068,616.990601 702.945068,616.990601 
	C702.945068,616.990601 703.002380,616.922485 702.606445,616.921997 
	C698.669739,617.317688 695.128845,617.713928 691.133545,618.091675 
	C686.766541,618.798218 682.858704,619.550415 678.940430,620.243225 
	C666.688965,622.409668 654.507141,625.325989 642.160278,626.501099 
	C628.295532,627.820618 614.279602,627.534485 600.332031,628.023132 
	C598.881287,628.073914 597.448547,628.641113 595.669128,629.018005 
	C594.880798,629.007812 594.430725,628.948242 593.808105,628.605713 
	C592.129028,627.752136 590.662048,626.845276 589.109985,626.662903 
	C573.905945,624.876953 558.922974,622.215210 544.560913,616.640747 
	C542.161316,615.709412 539.433167,615.624817 536.713623,614.868652 
	C535.021667,614.106689 533.473022,613.624939 531.566284,613.098145 
	C528.154602,611.662292 525.100952,610.271362 521.885010,608.679565 
	C521.252258,608.278564 520.781860,608.078491 520.102295,607.634155 
	C518.939331,606.915955 517.985535,606.442017 516.867493,605.759399 
	C516.229919,605.327454 515.756592,605.104126 515.073608,604.641602 
	C513.937134,603.901611 513.010315,603.400696 512.053589,602.941589 
	C512.023560,602.983398 512.103821,602.918884 511.905792,602.683350 
	C510.838959,601.919678 509.970154,601.391479 508.972504,600.649841 
	C508.593536,600.189331 508.292725,600.064270 507.748413,599.859009 
	C507.076233,599.380188 506.596832,599.103333 506.109314,598.859802 
	C506.101196,598.893066 506.167603,598.876343 505.980164,598.613159 
	C504.574860,597.472534 503.356995,596.594971 501.975769,595.458130 
	C500.833130,594.472961 499.853882,593.747253 498.695435,592.763916 
	C497.387604,591.576843 496.258972,590.647339 494.965576,589.438232 
	C492.302185,586.723022 489.803619,584.287415 487.148224,581.579956 
	C485.990845,580.245056 484.990234,579.181946 483.868652,577.838623 
	C482.937012,576.659119 482.126373,575.759766 481.178467,574.580444 
	C480.384460,573.504089 479.727753,572.707764 479.013519,571.687927 
	C478.821503,571.164062 478.597412,570.964172 478.160248,570.574707 
	C477.406128,569.449036 476.775543,568.613464 476.143219,567.829590 
	C476.141479,567.881226 476.244873,567.884033 476.125275,567.579224 
	C475.378326,566.402466 474.750977,565.530640 474.073486,564.403564 
	C473.718170,563.744324 473.413025,563.340271 473.012726,562.616455 
	C471.996246,560.789185 471.074921,559.281677 470.068115,557.815491 
	C469.982666,557.856873 470.065247,558.027954 470.065063,557.692810 
	C469.746338,556.778198 469.427795,556.198792 469.090240,555.437744 
	C469.071259,555.256104 468.860901,554.957642 468.791901,554.618164 
	C467.514465,551.805176 466.306030,549.331665 465.090149,546.898560 
	C465.082672,546.938843 465.163391,546.953430 465.100159,546.571533 
	C463.354706,540.627075 461.429199,535.124695 460.034454,529.490845 
	C455.300232,510.367920 456.354767,491.194733 460.065430,471.798462 
	C460.262024,471.217224 460.344086,470.874969 460.490479,470.506165 
	C460.554810,470.479675 460.531891,470.342407 460.669342,470.008118 
	C461.213257,467.776550 461.619720,465.879272 462.207275,463.672668 
	C464.280579,457.912842 466.172760,452.462280 468.294189,446.749329 
	C469.988007,443.302429 471.452576,440.117859 473.129700,436.679993 
	C474.278351,434.650696 475.214417,432.874725 476.117615,431.090942 
	C476.084747,431.083160 476.102448,431.148376 476.352539,430.931427 
	C477.743988,428.821472 478.885376,426.928497 480.016693,425.022156 
	C480.006592,425.008789 480.035400,425.023651 480.272461,424.833862 
	C481.027527,423.780334 481.545502,422.916565 482.030273,422.032349 
	C481.997101,422.011902 482.055573,422.065674 482.301208,421.875671 
	C483.117554,420.825897 483.688263,419.966125 484.459900,419.005188 
	C484.893921,418.690460 485.023682,418.426208 485.312256,417.924133 
	C486.461456,416.528290 487.348572,415.319519 488.491882,413.944366 
	C489.189056,412.886292 489.630096,411.994598 490.399750,410.977173 
	C491.888611,409.494720 493.048859,408.137970 494.998352,405.858337 
	C476.664825,406.778168 461.900055,413.481049 447.453430,421.933289 
	C446.771057,422.283905 446.351898,422.590759 445.659119,422.966461 
	C444.942047,423.372406 444.498566,423.709473 443.722229,424.137451 
	C430.781219,433.809692 418.173065,443.391022 405.324280,453.209045 
	C404.745026,453.740448 404.406342,454.035187 403.906616,454.607941 
	C397.646118,460.945679 391.546692,467.005371 385.205322,473.237183 
	C384.638092,473.633606 384.312805,473.857971 383.986420,474.035065 
	C383.985352,473.987793 384.079895,473.985474 383.894165,474.248291 
	C383.466522,474.865143 383.224548,475.219147 382.868530,475.859039 
	C354.926544,507.013397 328.461365,538.982239 304.546051,573.009827 
	C299.484009,559.178040 293.252747,545.643372 289.643768,531.442322 
	C284.674347,511.888336 281.687042,491.830658 277.747803,471.199158 
	C277.104309,468.218201 276.563538,466.026764 276.022797,463.835358 
	C276.014801,463.651123 276.006775,463.466858 276.013397,462.929443 
	C276.028076,462.576324 276.127625,462.391083 276.479431,462.362854 
	C277.736664,461.637299 278.642120,460.939972 279.547546,460.242615 
	C294.846741,446.151764 310.042328,431.946320 325.469269,417.996735 
	C348.967590,396.748749 373.382629,376.706482 401.460541,361.602753 
	C419.741028,351.769318 438.935303,344.442596 459.991577,340.324585 
	C462.345642,340.458740 463.998108,340.594116 465.599518,340.367950 
	C485.839355,337.509552 506.089264,335.587616 526.487305,338.865509 
	C533.676086,340.020691 540.902527,340.941071 548.111816,341.968628 
	C548.111816,341.968628 548.568848,341.986786 548.975220,342.132446 
	C549.908875,342.214844 550.436157,342.151611 550.963379,342.088379 
	C599.437622,354.256683 630.469177,391.379456 636.752991,421.065308 
	C632.329895,419.281677 628.501099,417.737701 624.041382,415.991791 
	C622.618530,415.544983 621.826660,415.300079 621.034851,415.055206 
	C621.034851,415.055206 620.682373,414.893036 620.189697,414.673676 
	C618.484497,414.355377 617.271973,414.256439 616.059509,414.157501 
	C615.897278,414.115845 615.734985,414.074219 615.278259,413.782928 
	C614.983887,413.533295 614.949463,413.117889 614.767944,412.811096 
	C613.314636,411.827576 612.115723,410.839783 610.759705,410.521973 
	C596.254822,407.122131 582.221130,409.294189 568.517273,414.466156 
	C567.271240,414.936432 566.381958,416.352112 565.230591,417.300659 
	C565.134155,417.272583 565.187988,417.079071 564.902344,417.184265 
	C564.068359,417.555298 563.519958,417.821136 563.010010,418.029236 
	C563.048401,417.971466 563.163940,418.048187 562.874512,418.190277 
	C562.068970,418.728821 561.552979,419.125275 560.861084,419.703735 
	C560.136536,420.269073 559.587952,420.652405 559.039429,421.035767 
	C558.303101,421.274628 557.566833,421.513519 556.221924,421.959747 
	C554.765625,422.856873 553.917969,423.546661 553.070251,424.236450 
z"/>
<path fill="#0E69C8" opacity="1.000000" stroke="none" 
	d="
M654.352600,680.159851 
	C634.798950,698.456909 615.753052,717.337708 595.561279,734.901123 
	C571.156494,756.129028 543.941895,773.622559 515.611694,791.372131 
	C490.666443,773.911682 464.930206,756.959412 440.362396,738.455811 
	C402.269287,709.765320 368.343658,676.701538 340.826202,637.462402 
	C338.342468,633.920776 336.031281,630.258179 333.704163,626.043945 
	C344.443726,611.887817 355.282013,598.463867 365.750641,584.757568 
	C377.220276,569.740662 388.348694,554.463196 399.934265,539.098694 
	C400.824951,537.918823 401.407257,536.939575 402.041199,535.736145 
	C402.228577,535.210876 402.455994,535.017639 403.067932,534.809387 
	C403.840515,534.021667 404.320221,533.356873 404.686371,532.742676 
	C404.572815,532.793152 404.472046,532.565918 405.006226,532.562500 
	C406.242767,532.454102 406.945160,532.348999 407.682739,532.518616 
	C407.537140,532.830872 407.356415,532.868469 407.143738,533.323059 
	C408.547882,539.698914 409.430237,545.863037 411.545685,551.570068 
	C414.990143,560.862427 419.240448,569.856140 423.096954,578.978882 
	C423.043274,578.981873 423.037476,578.874512 423.211121,579.076782 
	C423.638275,579.528992 423.891754,579.778931 424.082947,579.993774 
	C424.020599,579.958679 424.091003,579.834167 424.086975,580.222168 
	C425.401886,582.734070 426.720795,584.858093 428.013977,586.984741 
	C427.988251,586.987366 428.019501,586.946106 428.136353,587.218384 
	C428.532043,588.009705 428.810913,588.528625 429.035706,589.000427 
	C428.981598,588.953247 429.075897,588.844971 429.095764,589.214722 
	C430.149567,591.026184 431.183441,592.467834 432.161194,593.909241 
	C432.105103,593.908997 432.106049,593.796814 432.137146,594.138550 
	C432.833038,595.299744 433.497864,596.119202 434.115112,596.935913 
	C434.067566,596.933289 434.073212,596.838196 434.124756,597.197144 
	C434.911072,598.470825 435.645844,599.385437 436.635132,600.466064 
	C447.406982,611.909668 457.084015,624.143982 468.611938,634.271362 
	C494.799835,657.277649 526.036011,670.379211 560.242188,677.481934 
	C562.335205,678.166748 564.215332,678.570007 566.337830,679.000488 
	C566.580261,679.027649 567.053467,679.146362 567.376953,679.332397 
	C573.410522,680.358948 579.103455,681.361267 584.837891,681.974304 
	C587.869629,682.298401 590.973755,681.944824 594.509521,681.934631 
	C601.636108,681.953796 608.298401,681.935608 615.310181,682.100464 
	C621.877563,681.999268 628.097961,681.760986 634.312561,681.418335 
	C640.995422,681.049866 647.672791,680.583496 654.352600,680.159851 
z"/>
<path fill="#071723" opacity="1.000000" stroke="none" 
	d="
M402.775085,534.932373 
	C402.455994,535.017639 402.228577,535.210876 401.782074,535.948242 
	C400.856140,537.356079 400.241028,538.327698 399.625885,539.299316 
	C388.348694,554.463196 377.220276,569.740662 365.750641,584.757568 
	C355.282013,598.463867 344.443726,611.887817 333.532532,625.712402 
	C323.775909,608.539795 314.255066,591.091064 304.640137,573.326050 
	C328.461365,538.982239 354.926544,507.013397 383.155029,475.671265 
	C383.730347,474.793549 383.905121,474.389496 384.079895,473.985474 
	C384.079895,473.985474 383.985352,473.987793 384.301208,473.998779 
	C384.893799,473.694885 385.170532,473.379974 385.447266,473.065094 
	C391.546692,467.005371 397.646118,460.945679 404.200867,454.435455 
	C404.959106,453.647430 405.261993,453.309906 405.564911,452.972382 
	C418.173065,443.391022 430.781219,433.809692 443.928772,424.198669 
	C444.956360,423.745209 445.444550,423.321411 445.932739,422.897614 
	C446.351898,422.590759 446.771057,422.283905 447.842377,421.913452 
	C456.544098,418.474304 464.435760,414.620850 472.698792,411.891693 
	C478.180939,410.080963 484.194550,409.879425 489.986542,408.975555 
	C490.002808,408.993561 490.038330,409.026581 490.039490,409.372925 
	C490.050812,410.180481 490.060974,410.641724 490.071136,411.102936 
	C489.630096,411.994598 489.189056,412.886292 488.152100,414.028809 
	C486.720856,415.556824 485.885498,416.834015 485.050171,418.111237 
	C485.023682,418.426208 484.893921,418.690460 484.156708,419.131989 
	C483.120209,420.261871 482.587891,421.163788 482.055573,422.065674 
	C482.055573,422.065674 481.997101,422.011902 481.745178,422.172791 
	C481.007263,423.230347 480.521332,424.126984 480.035400,425.023651 
	C480.035400,425.023651 480.006592,425.008789 479.687714,425.127075 
	C478.280029,427.213013 477.191223,429.180695 476.102417,431.148376 
	C476.102448,431.148376 476.084747,431.083160 475.810059,431.197296 
	C474.662628,433.185394 473.789886,435.059357 472.917175,436.933289 
	C471.452576,440.117859 469.988007,443.302429 467.977875,446.890656 
	C465.630249,452.856873 463.828217,458.419434 462.026184,463.981964 
	C461.619720,465.879272 461.213257,467.776550 460.613220,469.975708 
	C460.419678,470.277618 460.426147,470.532684 460.426147,470.532684 
	C460.344086,470.874969 460.262024,471.217224 459.798523,472.039978 
	C458.938904,473.559662 458.253784,474.553162 458.013123,475.644653 
	C453.091858,497.962372 454.689209,519.923767 461.888824,541.518921 
	C462.541534,543.476746 464.051544,545.148682 465.163391,546.953430 
	C465.163391,546.953430 465.082672,546.938843 465.090332,547.290771 
	C466.352325,550.080994 467.606598,552.519287 468.860901,554.957642 
	C468.860901,554.957642 469.071259,555.256104 469.183289,555.749756 
	C469.551941,556.838318 469.808594,557.433105 470.065247,558.027954 
	C470.065247,558.027954 469.982666,557.856873 470.076263,558.189453 
	C471.149200,559.993469 472.128510,561.464844 473.107849,562.936218 
	C473.413025,563.340271 473.718170,563.744324 474.109375,564.750244 
	C474.878540,566.195984 475.561707,567.040039 476.244873,567.884033 
	C476.244873,567.884033 476.141479,567.881226 476.175934,568.174377 
	C476.901520,569.266602 477.592621,570.065674 478.283752,570.864746 
	C478.597412,570.964172 478.821503,571.164062 479.071167,572.017517 
	C479.896088,573.333923 480.605927,574.097168 481.315735,574.860474 
	C482.126373,575.759766 482.937012,576.659119 483.928009,578.180542 
	C485.173950,579.819092 486.239471,580.835449 487.304993,581.851746 
	C489.803619,584.287415 492.302185,586.723022 495.040161,589.771484 
	C496.477936,591.263306 497.676300,592.142395 498.874664,593.021484 
	C499.853882,593.747253 500.833130,594.472961 502.056580,595.800537 
	C503.589722,597.226990 504.878662,598.051636 506.167603,598.876343 
	C506.167603,598.876343 506.101196,598.893066 506.168915,599.079590 
	C506.804810,599.531128 507.373016,599.796143 507.941193,600.061096 
	C508.292725,600.064270 508.593536,600.189331 509.106079,600.942017 
	C510.280304,601.938049 511.192047,602.428467 512.103821,602.918945 
	C512.103821,602.918884 512.023560,602.983398 512.205078,603.238770 
	C513.352112,603.956360 514.317688,604.418579 515.283264,604.880798 
	C515.756592,605.104126 516.229919,605.327454 517.035278,606.049500 
	C518.348694,606.991577 519.330078,607.434998 520.311462,607.878418 
	C520.781860,608.078491 521.252258,608.278564 522.011108,608.995605 
	C525.567993,610.918091 528.836487,612.323608 532.428467,613.777588 
	C533.512268,614.224121 534.272522,614.622192 535.185425,615.332764 
	C538.442749,616.727112 541.547607,617.808838 544.747559,618.813599 
	C544.842773,618.736572 545.032837,618.890991 545.184082,619.202759 
	C547.313660,620.626953 549.168335,622.148621 551.289246,622.789368 
	C576.704773,630.467590 602.790100,632.041565 629.128967,630.926758 
	C631.097839,630.843384 633.023376,629.737183 635.368347,629.032410 
	C636.851807,628.954590 637.935913,628.950806 639.368408,629.133606 
	C644.315857,629.073486 649.015869,629.348572 653.495239,628.482239 
	C666.893860,625.891174 680.210876,622.875427 693.547852,619.970825 
	C696.131531,619.408203 698.528320,619.027832 699.950745,621.977600 
	C687.678894,641.567932 673.418762,659.618958 657.003479,676.677490 
	C644.519775,678.141174 632.737549,679.471863 620.823730,680.581787 
	C619.807190,680.543274 618.922180,680.725464 617.673218,680.980042 
	C616.570190,681.110107 615.831055,681.167786 614.731934,681.004272 
	C603.876404,680.265320 593.381470,679.734619 582.883850,679.262939 
	C582.279114,679.235840 581.652649,679.689331 580.619507,679.961182 
	C575.819641,679.717590 571.436584,679.431946 567.053467,679.146362 
	C567.053467,679.146362 566.580261,679.027649 566.137207,678.699585 
	C563.805847,677.981140 561.917542,677.590759 560.029236,677.200317 
	C526.036011,670.379211 494.799835,657.277649 468.611938,634.271362 
	C457.084015,624.143982 447.406982,611.909668 436.501282,600.123291 
	C435.433044,598.689209 434.753143,597.763672 434.073212,596.838196 
	C434.073212,596.838196 434.067566,596.933289 434.019836,596.632446 
	C433.350067,595.486633 432.728058,594.641724 432.106049,593.796814 
	C432.106049,593.796814 432.105103,593.908997 432.058472,593.587769 
	C431.033173,591.792664 430.054535,590.318848 429.075897,588.844971 
	C429.075897,588.844971 428.981598,588.953247 428.996887,588.698730 
	C428.681305,587.944885 428.350403,587.445496 428.019501,586.946106 
	C428.019501,586.946106 427.988251,586.987366 427.922974,586.651001 
	C426.602142,584.154480 425.346558,581.994324 424.091003,579.834167 
	C424.091003,579.834167 424.020599,579.958679 424.014221,579.684570 
	C423.684418,579.231873 423.360931,579.053162 423.037476,578.874512 
	C423.037476,578.874512 423.043274,578.981873 423.187866,578.590698 
	C419.251801,567.140442 415.128815,556.096741 411.113007,545.014282 
	C409.667908,541.026306 408.480621,536.944824 407.175659,532.906067 
	C407.356415,532.868469 407.537140,532.830872 407.539551,532.235168 
	C407.083008,531.141479 406.804749,530.605957 406.526489,530.070374 
	C405.841644,530.902222 405.156830,531.734070 404.472046,532.565918 
	C404.472046,532.565918 404.572815,532.793152 404.375641,532.838623 
	C403.710663,533.566833 403.242889,534.249573 402.775085,534.932373 
z"/>
<path fill="#5DE13D" opacity="1.000000" stroke="none" 
	d="
M753.477295,470.752655 
	C754.136719,453.950378 755.079651,436.928986 756.005981,418.978210 
	C755.946594,411.040192 755.903870,404.031586 755.861145,397.022980 
	C755.906555,395.941589 755.951965,394.860199 755.981689,392.932434 
	C755.930908,389.398041 755.895813,386.710052 755.860718,384.022034 
	C755.907349,381.964539 755.953979,379.907043 755.982788,376.948730 
	C755.929138,369.373596 755.893311,362.699219 755.857544,356.024872 
	C755.902832,354.942627 755.948181,353.860382 755.978516,351.937622 
	C755.927063,348.739471 755.890747,346.381866 755.854431,344.024231 
	C755.901245,340.976685 755.948120,337.929108 755.979614,334.018799 
	C755.928284,331.778351 755.892212,330.400604 755.856079,329.022888 
	C755.903320,327.618164 755.950500,326.213409 755.981140,323.927429 
	C755.976257,315.364227 755.987854,307.682343 756.013611,299.982056 
	C756.027710,299.963715 756.052856,299.924927 756.052856,299.924927 
	C756.695740,301.872864 757.894714,303.819366 757.899597,305.768921 
	C758.004333,347.386230 758.181641,389.005524 757.841248,430.620361 
	C757.743652,442.551117 756.107727,454.471985 755.079468,466.388947 
	C754.957825,467.797943 754.215515,469.153351 753.477295,470.752655 
z"/>
<path fill="#5DE13D" opacity="1.000000" stroke="none" 
	d="
M276.127625,462.391083 
	C276.127625,462.391083 276.028076,462.576324 275.966583,462.656799 
	C275.274689,455.816681 274.124603,448.898010 274.098175,441.975067 
	C273.925110,396.672028 273.978912,351.367981 274.043549,306.064423 
	C274.046234,304.194763 274.895660,302.326324 275.624634,300.691620 
	C275.949707,332.613586 276.000763,364.301239 276.051849,395.988892 
	C275.996246,397.065125 275.940613,398.141327 275.902954,400.078827 
	C275.976227,414.621521 276.031555,428.302917 276.086884,441.984344 
	C276.052765,443.385254 276.018616,444.786194 276.011963,447.064880 
	C276.068878,452.758789 276.098236,457.574951 276.127625,462.391083 
z"/>
<path fill="#5DE13D" opacity="1.000000" stroke="none" 
	d="
M471.685547,240.787598 
	C447.531647,249.939438 423.096558,258.959717 398.640930,267.924072 
	C395.063629,269.235352 391.388672,270.280090 387.402893,271.521027 
	C388.686310,270.565643 390.205261,269.207153 391.983215,268.558929 
	C417.312500,259.324158 442.673676,250.176743 468.043823,241.054535 
	C469.078033,240.682693 470.276062,240.766510 471.685547,240.787598 
z"/>
<path fill="#02041D" opacity="1.000000" stroke="none" 
	d="
M700.202026,621.765686 
	C698.528320,619.027832 696.131531,619.408203 693.547852,619.970825 
	C680.210876,622.875427 666.893860,625.891174 653.495239,628.482239 
	C649.015869,629.348572 644.315857,629.073486 639.695740,628.905090 
	C643.796570,628.005859 647.986511,627.840942 652.027649,626.978882 
	C665.243591,624.159363 678.405396,621.085938 691.588013,618.110168 
	C695.128845,617.713928 698.669739,617.317688 702.640625,616.950500 
	C702.198242,618.504333 701.325806,620.029053 700.202026,621.765686 
z"/>
<path fill="#02041D" opacity="1.000000" stroke="none" 
	d="
M276.223999,395.615540 
	C276.000763,364.301239 275.949707,332.613586 275.924500,300.457153 
	C280.351105,299.349884 284.751862,298.711456 289.568909,298.098877 
	C288.042847,298.795013 286.147675,299.773560 284.149597,300.079071 
	C277.487030,301.097900 277.012482,301.491974 277.009186,308.216156 
	C276.996033,334.926575 277.017853,361.637054 276.976257,388.347412 
	C276.972656,390.645966 276.598267,392.943939 276.223999,395.615540 
z"/>
<path fill="#0D75DE" opacity="1.000000" stroke="none" 
	d="
M620.955261,680.802612 
	C632.737549,679.471863 644.519775,678.141174 656.738708,676.859802 
	C656.407104,677.871033 655.638916,678.833008 654.611633,679.977417 
	C647.672791,680.583496 640.995422,681.049866 634.312561,681.418335 
	C628.097961,681.760986 621.877563,681.999268 615.345459,681.927917 
	C615.031250,681.572266 615.091980,681.225403 615.091980,681.225403 
	C615.831055,681.167786 616.570190,681.110107 618.037415,681.032532 
	C619.495483,680.942627 620.225342,680.872620 620.955261,680.802612 
z"/>
<path fill="#5DE13D" opacity="1.000000" stroke="none" 
	d="
M740.736206,297.337952 
	C740.637146,297.594269 740.335876,297.543030 739.768799,297.381775 
	C739.493896,297.325165 739.354370,297.393280 739.354370,297.393280 
	C730.156189,295.292450 720.958008,293.191620 711.397095,290.979004 
	C711.488708,290.677490 712.000977,290.242493 712.388977,290.334076 
	C721.775635,292.549896 731.149048,294.821899 740.736206,297.337952 
z"/>
<path fill="#02041D" opacity="1.000000" stroke="none" 
	d="
M309.592804,293.977173 
	C304.151733,295.350037 298.297882,296.714417 292.130157,297.896545 
	C297.604218,296.465759 303.392090,295.217224 309.592804,293.977173 
z"/>
<path fill="#02041D" opacity="1.000000" stroke="none" 
	d="
M327.589294,289.328918 
	C323.797455,290.552032 319.627960,291.806519 315.155212,292.910522 
	C318.971863,291.626801 323.091736,290.493561 327.589294,289.328918 
z"/>
<path fill="#5DE13D" opacity="1.000000" stroke="none" 
	d="
M745.979187,298.955597 
	C745.550354,298.947205 745.121582,298.938843 744.330078,298.746796 
	C743.967346,298.563141 743.886963,298.214294 743.886963,298.214294 
	C747.791626,298.597473 751.696350,298.980652 755.826904,299.644348 
	C756.052856,299.924927 756.027710,299.963715 755.640503,299.903137 
	C753.508057,299.627960 751.762878,299.413330 750.017700,299.198730 
	C749.264709,299.100769 748.511780,299.002808 747.127930,298.880554 
	C746.324402,298.889435 746.151794,298.922516 745.979187,298.955597 
z"/>
<path fill="#5DE13D" opacity="1.000000" stroke="none" 
	d="
M276.017700,464.265747 
	C276.563538,466.026764 277.104309,468.218201 277.640869,470.784729 
	C277.095276,469.005249 276.553925,466.850708 276.017700,464.265747 
z"/>
<path fill="#02041D" opacity="1.000000" stroke="none" 
	d="
M743.577209,298.164734 
	C743.886963,298.214294 743.967346,298.563141 744.004822,298.738190 
	C743.430054,298.789429 742.817810,298.665649 742.110962,298.343628 
	C742.433350,298.135315 742.850403,298.125244 743.577209,298.164734 
z"/>
<path fill="#5DE13D" opacity="1.000000" stroke="none" 
	d="
M807.743896,453.223175 
	C807.760681,453.335938 807.639893,453.641632 807.282837,454.063782 
	C807.257019,453.943054 807.443665,453.688324 807.743896,453.223175 
z"/>
<path fill="#02041D" opacity="1.000000" stroke="none" 
	d="
M702.968201,617.022278 
	C702.945068,616.990601 703.072266,617.019348 703.104126,617.011597 
	C703.135986,617.003906 702.991333,617.053955 702.968201,617.022278 
z"/>
<path fill="#02041D" opacity="1.000000" stroke="none" 
	d="
M598.969055,569.366577 
	C598.543640,569.258728 598.118286,569.150818 597.374878,568.956238 
	C599.999756,568.677856 602.940369,568.375427 605.886047,568.314514 
	C616.145569,568.101990 626.561707,569.044861 636.635071,567.588928 
	C657.477356,564.576660 678.135925,560.295288 698.877563,556.577881 
	C699.981506,556.380005 701.155090,556.570251 702.610962,556.733887 
	C680.201538,562.852539 657.332764,568.055298 632.992920,570.071899 
	C623.434509,570.140015 614.730164,570.145691 606.025818,570.151306 
	C605.575195,570.076721 605.124512,570.002075 603.978638,569.867920 
	C601.845276,569.661133 600.407166,569.513855 598.969055,569.366577 
z"/>
<path fill="#0D75DE" opacity="1.000000" stroke="none" 
	d="
M547.904175,341.664490 
	C540.902527,340.941071 533.676086,340.020691 526.487305,338.865509 
	C506.089264,335.587616 485.839355,337.509552 465.599518,340.367950 
	C463.998108,340.594116 462.345642,340.458740 460.386658,340.319214 
	C489.359894,334.045746 518.583313,333.721344 547.904175,341.664490 
z"/>
<path fill="#0D75DE" opacity="1.000000" stroke="none" 
	d="
M565.327026,417.328796 
	C566.381958,416.352112 567.271240,414.936432 568.517273,414.466156 
	C582.221130,409.294189 596.254822,407.122131 610.759705,410.521973 
	C612.115723,410.839783 613.314636,411.827576 614.448364,412.684052 
	C613.857483,412.844910 613.404602,412.826019 612.951782,412.807159 
	C612.532227,412.819153 612.112732,412.831177 611.225281,412.580383 
	C610.182007,412.246643 609.606689,412.175690 609.031311,412.104736 
	C608.581543,412.056763 608.131714,412.008820 607.037170,411.665649 
	C602.944458,411.281311 599.496521,411.192230 596.048584,411.103149 
	C594.954285,411.064484 593.860046,411.025818 591.924072,411.004761 
	C584.005554,412.577850 576.928589,414.133392 569.851685,415.688904 
	C569.057861,415.996002 568.264038,416.303101 566.943604,416.839050 
	C566.053650,417.154877 565.690308,417.241852 565.327026,417.328796 
z"/>
<path fill="#02041D" opacity="1.000000" stroke="none" 
	d="
M276.255554,441.610016 
	C276.031555,428.302917 275.976227,414.621521 275.986206,400.476135 
	C276.366791,402.625366 276.965881,405.240479 276.948212,407.851440 
	C276.872986,418.980194 276.615326,430.107727 276.255554,441.610016 
z"/>
<path fill="#02041D" opacity="1.000000" stroke="none" 
	d="
M570.139404,415.854675 
	C576.928589,414.133392 584.005554,412.577850 591.517212,411.065674 
	C589.478638,411.868225 587.043396,412.803314 584.523804,413.348358 
	C579.850952,414.359283 575.128784,415.142426 570.139404,415.854675 
z"/>
<path fill="#02041D" opacity="1.000000" stroke="none" 
	d="
M276.479431,462.362854 
	C276.098236,457.574951 276.068878,452.758789 276.093506,447.478638 
	C276.762909,449.115173 277.472565,451.193848 277.966492,453.322540 
	C278.440857,455.366882 278.691772,457.463135 279.294250,459.889587 
	C278.642120,460.939972 277.736664,461.637299 276.479431,462.362854 
z"/>
<path fill="#02041D" opacity="1.000000" stroke="none" 
	d="
M750.225098,299.470825 
	C751.762878,299.413330 753.508057,299.627960 755.626343,299.921509 
	C755.987854,307.682343 755.976257,315.364227 755.910645,323.510651 
	C755.569397,318.759460 754.962585,313.535431 755.097961,308.330719 
	C755.202393,304.316925 754.391357,301.309021 750.225098,299.470825 
z"/>
<path fill="#02041D" opacity="1.000000" stroke="none" 
	d="
M755.699097,397.399078 
	C755.903870,404.031586 755.946594,411.040192 755.933472,418.513153 
	C755.764038,411.910065 755.650513,404.842621 755.699097,397.399078 
z"/>
<path fill="#02041D" opacity="1.000000" stroke="none" 
	d="
M755.695557,356.400818 
	C755.893311,362.699219 755.929138,369.373596 755.912109,376.512695 
	C755.750671,370.243896 755.642151,363.510315 755.695557,356.400818 
z"/>
<path fill="#02041D" opacity="1.000000" stroke="none" 
	d="
M596.383789,411.269897 
	C599.496521,411.192230 602.944458,411.281311 606.697693,411.647461 
	C603.574951,411.761871 600.146973,411.599243 596.383789,411.269897 
z"/>
<path fill="#02041D" opacity="1.000000" stroke="none" 
	d="
M565.230591,417.300690 
	C565.690308,417.241852 566.053650,417.154877 566.695740,417.044373 
	C564.512756,418.431030 562.050903,419.841248 559.314270,421.143616 
	C559.587952,420.652405 560.136536,420.269073 561.173340,419.569275 
	C562.162354,418.851257 562.663147,418.449738 563.163940,418.048218 
	C563.163940,418.048187 563.048401,417.971466 563.342407,418.066650 
	C564.153564,417.800903 564.670776,417.440002 565.187988,417.079102 
	C565.187988,417.079071 565.134155,417.272583 565.230591,417.300690 
z"/>
<path fill="#02041D" opacity="1.000000" stroke="none" 
	d="
M755.704712,384.371094 
	C755.895813,386.710052 755.930908,389.398041 755.912292,392.531311 
	C755.755249,390.224426 755.651978,387.472290 755.704712,384.371094 
z"/>
<path fill="#02041D" opacity="1.000000" stroke="none" 
	d="
M755.700928,344.363892 
	C755.890747,346.381866 755.927063,348.739471 755.909668,351.536072 
	C755.753113,349.551208 755.650208,347.127380 755.700928,344.363892 
z"/>
<path fill="#02041D" opacity="1.000000" stroke="none" 
	d="
M755.711182,329.315521 
	C755.892212,330.400604 755.928284,331.778351 755.910828,333.566833 
	C755.760254,332.521088 755.663269,331.064636 755.711182,329.315521 
z"/>
<path fill="#0D75DE" opacity="1.000000" stroke="none" 
	d="
M549.105164,427.165680 
	C549.638306,426.587189 550.481018,425.864807 551.659546,425.070557 
	C551.135071,425.673096 550.274902,426.347443 549.105164,427.165680 
z"/>
<path fill="#02041D" opacity="1.000000" stroke="none" 
	d="
M621.145996,415.298950 
	C621.826660,415.300079 622.618530,415.544983 623.685669,415.943848 
	C623.059692,415.912781 622.158386,415.727722 621.145996,415.298950 
z"/>
<path fill="#0D75DE" opacity="1.000000" stroke="none" 
	d="
M553.377014,424.119293 
	C553.917969,423.546661 554.765625,422.856873 555.964966,422.125732 
	C555.439026,422.723633 554.561401,423.362885 553.377014,424.119293 
z"/>
<path fill="#0D75DE" opacity="1.000000" stroke="none" 
	d="
M550.785156,341.988617 
	C550.436157,342.151611 549.908875,342.214844 549.202026,342.161804 
	C549.550598,341.993286 550.078796,341.941071 550.785156,341.988617 
z"/>
<path fill="#02041D" opacity="1.000000" stroke="none" 
	d="
M609.120728,412.307800 
	C609.606689,412.175690 610.182007,412.246643 610.906921,412.577209 
	C610.441040,412.728180 609.825623,412.619507 609.120728,412.307800 
z"/>
<path fill="#02041D" opacity="1.000000" stroke="none" 
	d="
M616.385132,414.313416 
	C617.271973,414.256439 618.484497,414.355377 619.995728,414.677551 
	C619.099854,414.756958 617.905334,414.613159 616.385132,414.313416 
z"/>
<path fill="#02041D" opacity="1.000000" stroke="none" 
	d="
M613.194214,412.991211 
	C613.404602,412.826019 613.857483,412.844910 614.629883,412.990845 
	C614.949463,413.117889 614.983887,413.533295 615.031372,413.735779 
	C614.531433,413.683960 613.984009,413.429596 613.194214,412.991211 
z"/>
<path fill="#02041D" opacity="1.000000" stroke="none" 
	d="
M746.105896,298.985748 
	C746.151794,298.922516 746.324402,298.889435 746.749634,298.932343 
	C747.002136,299.008362 746.616394,299.053619 746.616394,299.053619 
	C746.616394,299.053619 746.232605,299.015900 746.105896,298.985748 
z"/>
<path fill="#02041D" opacity="1.000000" stroke="none" 
	d="
M739.538696,297.388580 
	C739.583496,297.451996 739.312195,297.511353 739.333252,297.452332 
	C739.354370,297.393280 739.493896,297.325165 739.538696,297.388580 
z"/>
<path fill="#0D75DE" opacity="1.000000" stroke="none" 
	d="
M691.133545,618.091675 
	C678.405396,621.085938 665.243591,624.159363 652.027649,626.978882 
	C647.986511,627.840942 643.796570,628.005859 639.347412,628.718567 
	C637.935913,628.950806 636.851807,628.954590 634.931030,628.994019 
	C621.398743,629.009277 608.703125,628.988953 596.007446,628.968628 
	C597.448547,628.641113 598.881287,628.073914 600.332031,628.023132 
	C614.279602,627.534485 628.295532,627.820618 642.160278,626.501099 
	C654.507141,625.325989 666.688965,622.409668 678.940430,620.243225 
	C682.858704,619.550415 686.766541,618.798218 691.133545,618.091675 
z"/>
<path fill="#02041D" opacity="1.000000" stroke="none" 
	d="
M595.669128,629.017944 
	C608.703125,628.988953 621.398743,629.009277 634.531738,629.067993 
	C633.023376,629.737183 631.097839,630.843384 629.128967,630.926758 
	C602.790100,632.041565 576.704773,630.467590 551.289246,622.789368 
	C549.168335,622.148621 547.313660,620.626953 545.561279,619.237549 
	C561.419617,624.367798 577.446716,627.858521 593.980713,628.888794 
	C594.430725,628.948242 594.880798,629.007812 595.669128,629.017944 
z"/>
<path fill="#02041D" opacity="1.000000" stroke="none" 
	d="
M465.100159,546.571533 
	C464.051544,545.148682 462.541534,543.476746 461.888824,541.518921 
	C454.689209,519.923767 453.091858,497.962372 458.013123,475.644653 
	C458.253784,474.553162 458.938904,473.559662 459.683960,472.278992 
	C456.354767,491.194733 455.300232,510.367920 460.034454,529.490845 
	C461.429199,535.124695 463.354706,540.627075 465.100159,546.571533 
z"/>
<path fill="#0D75DE" opacity="1.000000" stroke="none" 
	d="
M593.808105,628.605774 
	C577.446716,627.858521 561.419617,624.367798 545.410034,618.925781 
	C545.032837,618.890991 544.842773,618.736572 544.473389,618.552002 
	C541.671143,617.325745 539.238220,616.284058 536.819092,615.219421 
	C536.832764,615.196533 536.856812,615.148926 536.856812,615.148926 
	C539.433167,615.624817 542.161316,615.709412 544.560913,616.640747 
	C558.922974,622.215210 573.905945,624.876953 589.109985,626.662903 
	C590.662048,626.845276 592.129028,627.752136 593.808105,628.605774 
z"/>
<path fill="#02041D" opacity="1.000000" stroke="none" 
	d="
M490.399750,410.977173 
	C490.060974,410.641724 490.050812,410.180481 490.067139,409.346619 
	C490.093597,408.973969 489.970276,408.957550 489.970276,408.957550 
	C484.194550,409.879425 478.180939,410.080963 472.698792,411.891693 
	C464.435760,414.620850 456.544098,418.474304 448.105621,421.869720 
	C461.900055,413.481049 476.664825,406.778168 494.998352,405.858337 
	C493.048859,408.137970 491.888611,409.494720 490.399750,410.977173 
z"/>
<path fill="#0D75DE" opacity="1.000000" stroke="none" 
	d="
M606.253174,570.447632 
	C614.730164,570.145691 623.434509,570.140015 632.554932,570.166382 
	C632.003540,570.764709 631.041992,571.809082 630.067871,571.820984 
	C622.768677,571.909668 615.466675,571.816467 608.166809,571.700623 
	C607.599854,571.691650 607.042419,571.077026 606.253174,570.447632 
z"/>
<path fill="#02041D" opacity="1.000000" stroke="none" 
	d="
M462.207275,463.672668 
	C463.828217,458.419434 465.630249,452.856873 467.748627,447.153015 
	C466.172760,452.462280 464.280579,457.912842 462.207275,463.672668 
z"/>
<path fill="#02041D" opacity="1.000000" stroke="none" 
	d="
M532.104919,613.729187 
	C528.836487,612.323608 525.567993,610.918091 522.173401,609.196533 
	C525.100952,610.271362 528.154602,611.662292 531.618652,613.242432 
	C532.028992,613.431702 532.104919,613.729187 532.104919,613.729187 
z"/>
<path fill="#02041D" opacity="1.000000" stroke="none" 
	d="
M468.791901,554.618164 
	C467.606598,552.519287 466.352325,550.080994 465.097809,547.250427 
	C466.306030,549.331665 467.514465,551.805176 468.791901,554.618164 
z"/>
<path fill="#02041D" opacity="1.000000" stroke="none" 
	d="
M473.129700,436.679993 
	C473.789886,435.059357 474.662628,433.185394 475.842926,431.205078 
	C475.214417,432.874725 474.278351,434.650696 473.129700,436.679993 
z"/>
<path fill="#02041D" opacity="1.000000" stroke="none" 
	d="
M476.352509,430.931427 
	C477.191223,429.180695 478.280029,427.213013 479.697815,425.140442 
	C478.885376,426.928497 477.743988,428.821472 476.352509,430.931427 
z"/>
<path fill="#02041D" opacity="1.000000" stroke="none" 
	d="
M473.012695,562.616455 
	C472.128510,561.464844 471.149200,559.993469 470.161743,558.148071 
	C471.074921,559.281677 471.996246,560.789185 473.012695,562.616455 
z"/>
<path fill="#0D75DE" opacity="1.000000" stroke="none" 
	d="
M532.428467,613.777588 
	C532.104919,613.729187 532.028992,613.431702 531.976685,613.287415 
	C533.473022,613.624939 535.021667,614.106689 536.713623,614.868652 
	C536.856812,615.148926 536.832764,615.196533 536.521362,615.196777 
	C535.817627,615.138123 535.425232,615.079163 535.032837,615.020264 
	C534.272522,614.622192 533.512268,614.224121 532.428467,613.777588 
z"/>
<path fill="#02041D" opacity="1.000000" stroke="none" 
	d="
M498.695435,592.763916 
	C497.676300,592.142395 496.477936,591.263306 495.204956,590.051025 
	C496.258972,590.647339 497.387604,591.576843 498.695435,592.763916 
z"/>
<path fill="#02041D" opacity="1.000000" stroke="none" 
	d="
M487.148193,581.579956 
	C486.239471,580.835449 485.173950,579.819092 484.049011,578.460815 
	C484.990234,579.181946 485.990845,580.245056 487.148193,581.579956 
z"/>
<path fill="#02041D" opacity="1.000000" stroke="none" 
	d="
M505.980164,598.613159 
	C504.878662,598.051636 503.589722,597.226990 502.219971,596.059875 
	C503.356995,596.594971 504.574860,597.472534 505.980164,598.613159 
z"/>
<path fill="#02041D" opacity="1.000000" stroke="none" 
	d="
M485.312256,417.924133 
	C485.885498,416.834015 486.720856,415.556824 487.895935,414.195190 
	C487.348572,415.319519 486.461456,416.528290 485.312256,417.924133 
z"/>
<path fill="#0D75DE" opacity="1.000000" stroke="none" 
	d="
M598.774353,569.501831 
	C600.407166,569.513855 601.845276,569.661133 603.637390,569.910522 
	C602.035706,570.144897 600.080017,570.277222 598.124329,570.409607 
	C598.158569,570.259644 598.160828,570.090637 598.235779,569.964966 
	C598.313965,569.833923 598.462097,569.744568 598.774353,569.501831 
z"/>
<path fill="#02041D" opacity="1.000000" stroke="none" 
	d="
M481.178467,574.580444 
	C480.605927,574.097168 479.896088,573.333923 479.128662,572.241028 
	C479.727753,572.707764 480.384460,573.504089 481.178467,574.580444 
z"/>
<path fill="#02041D" opacity="1.000000" stroke="none" 
	d="
M478.160248,570.574707 
	C477.592621,570.065674 476.901520,569.266602 476.177673,568.122681 
	C476.775543,568.613464 477.406128,569.449036 478.160248,570.574707 
z"/>
<path fill="#02041D" opacity="1.000000" stroke="none" 
	d="
M476.125275,567.579224 
	C475.561707,567.040039 474.878540,566.195984 474.159546,565.005371 
	C474.750977,565.530640 475.378326,566.402466 476.125275,567.579224 
z"/>
<path fill="#02041D" opacity="1.000000" stroke="none" 
	d="
M480.272461,424.833862 
	C480.521332,424.126984 481.007263,423.230347 481.778320,422.193237 
	C481.545502,422.916565 481.027527,423.780334 480.272461,424.833862 
z"/>
<path fill="#02041D" opacity="1.000000" stroke="none" 
	d="
M511.905792,602.683411 
	C511.192047,602.428467 510.280304,601.938049 509.234985,601.155457 
	C509.970154,601.391479 510.838959,601.919678 511.905792,602.683411 
z"/>
<path fill="#02041D" opacity="1.000000" stroke="none" 
	d="
M515.073608,604.641602 
	C514.317688,604.418579 513.352112,603.956360 512.235046,603.196960 
	C513.010315,603.400696 513.937134,603.901611 515.073608,604.641602 
z"/>
<path fill="#02041D" opacity="1.000000" stroke="none" 
	d="
M520.102295,607.634155 
	C519.330078,607.434998 518.348694,606.991577 517.199524,606.258118 
	C517.985535,606.442017 518.939331,606.915955 520.102295,607.634155 
z"/>
<path fill="#02041D" opacity="1.000000" stroke="none" 
	d="
M482.301208,421.875671 
	C482.587891,421.163788 483.120209,420.261871 483.955750,419.233154 
	C483.688263,419.966125 483.117554,420.825897 482.301208,421.875671 
z"/>
<path fill="#02041D" opacity="1.000000" stroke="none" 
	d="
M507.748413,599.859009 
	C507.373016,599.796143 506.804810,599.531128 506.177063,599.046387 
	C506.596832,599.103333 507.076233,599.380188 507.748413,599.859009 
z"/>
<path fill="#02041D" opacity="1.000000" stroke="none" 
	d="
M445.659119,422.966461 
	C445.444550,423.321411 444.956360,423.745209 444.261627,424.107788 
	C444.498566,423.709473 444.942047,423.372406 445.659119,422.966461 
z"/>
<path fill="#0D75DE" opacity="1.000000" stroke="none" 
	d="
M562.874512,418.190308 
	C562.663147,418.449738 562.162354,418.851257 561.349243,419.387268 
	C561.552979,419.125275 562.068970,418.728821 562.874512,418.190308 
z"/>
<path fill="#0D75DE" opacity="1.000000" stroke="none" 
	d="
M564.902344,417.184265 
	C564.670776,417.440002 564.153564,417.800903 563.303955,418.124390 
	C563.519958,417.821136 564.068359,417.555298 564.902344,417.184265 
z"/>
<path fill="#02041D" opacity="1.000000" stroke="none" 
	d="
M470.065063,557.692810 
	C469.808594,557.433105 469.551941,556.838318 469.202271,555.931396 
	C469.427795,556.198792 469.746338,556.778198 470.065063,557.692810 
z"/>
<path fill="#0D75DE" opacity="1.000000" stroke="none" 
	d="
M405.324280,453.209045 
	C405.261993,453.309906 404.959106,453.647430 404.361938,454.157440 
	C404.406342,454.035187 404.745026,453.740448 405.324280,453.209045 
z"/>
<path fill="#0D75DE" opacity="1.000000" stroke="none" 
	d="
M385.205322,473.237183 
	C385.170532,473.379974 384.893799,473.694885 384.302277,474.046051 
	C384.312805,473.857971 384.638092,473.633606 385.205322,473.237183 
z"/>
<path fill="#0D75DE" opacity="1.000000" stroke="none" 
	d="
M383.894165,474.248291 
	C383.905121,474.389496 383.730347,474.793549 383.269073,475.385376 
	C383.224548,475.219147 383.466522,474.865143 383.894165,474.248291 
z"/>
<path fill="#0D75DE" opacity="1.000000" stroke="none" 
	d="
M407.143738,533.323059 
	C408.480621,536.944824 409.667908,541.026306 411.113007,545.014282 
	C415.128815,556.096741 419.251801,567.140442 423.241516,578.587646 
	C419.240448,569.856140 414.990143,560.862427 411.545685,551.570068 
	C409.430237,545.863037 408.547882,539.698914 407.143738,533.323059 
z"/>
<path fill="#02041D" opacity="1.000000" stroke="none" 
	d="
M614.731934,681.004272 
	C615.091980,681.225403 615.031250,681.572266 614.995972,681.744873 
	C608.298401,681.935608 601.636108,681.953796 594.260559,681.614014 
	C589.376953,680.810364 585.206604,680.364807 581.036316,679.919189 
	C581.652649,679.689331 582.279114,679.235840 582.883850,679.262939 
	C593.381470,679.734619 603.876404,680.265320 614.731934,681.004272 
z"/>
<path fill="#0D75DE" opacity="1.000000" stroke="none" 
	d="
M580.619507,679.961182 
	C585.206604,680.364807 589.376953,680.810364 593.796265,681.576599 
	C590.973755,681.944824 587.869629,682.298401 584.837891,681.974304 
	C579.103455,681.361267 573.410522,680.358948 567.376953,679.332397 
	C571.436584,679.431946 575.819641,679.717590 580.619507,679.961182 
z"/>
<path fill="#0D75DE" opacity="1.000000" stroke="none" 
	d="
M424.086975,580.222168 
	C425.346558,581.994324 426.602142,584.154480 427.948730,586.648315 
	C426.720795,584.858093 425.401886,582.734070 424.086975,580.222168 
z"/>
<path fill="#0D75DE" opacity="1.000000" stroke="none" 
	d="
M429.095764,589.214722 
	C430.054535,590.318848 431.033173,591.792664 432.114563,593.588013 
	C431.183441,592.467834 430.149567,591.026184 429.095764,589.214722 
z"/>
<path fill="#0D75DE" opacity="1.000000" stroke="none" 
	d="
M560.242188,677.481934 
	C561.917542,677.590759 563.805847,677.981140 565.894775,678.672363 
	C564.215332,678.570007 562.335205,678.166748 560.242188,677.481934 
z"/>
<path fill="#0D75DE" opacity="1.000000" stroke="none" 
	d="
M405.006195,532.562500 
	C405.156830,531.734070 405.841644,530.902222 406.526489,530.070374 
	C406.804749,530.605957 407.083008,531.141479 407.504395,531.960510 
	C406.945160,532.348999 406.242767,532.454102 405.006195,532.562500 
z"/>
<path fill="#0D75DE" opacity="1.000000" stroke="none" 
	d="
M399.934265,539.098694 
	C400.241028,538.327698 400.856140,537.356079 401.730408,536.172363 
	C401.407257,536.939575 400.824951,537.918823 399.934265,539.098694 
z"/>
<path fill="#0D75DE" opacity="1.000000" stroke="none" 
	d="
M432.137146,594.138550 
	C432.728058,594.641724 433.350067,595.486633 434.067383,596.635071 
	C433.497864,596.119202 432.833038,595.299744 432.137146,594.138550 
z"/>
<path fill="#0D75DE" opacity="1.000000" stroke="none" 
	d="
M434.124756,597.197144 
	C434.753143,597.763672 435.433044,598.689209 436.246765,599.957397 
	C435.645844,599.385437 434.911072,598.470825 434.124756,597.197144 
z"/>
<path fill="#0D75DE" opacity="1.000000" stroke="none" 
	d="
M403.067932,534.809387 
	C403.242889,534.249573 403.710663,533.566833 404.489197,532.788086 
	C404.320221,533.356873 403.840515,534.021667 403.067932,534.809387 
z"/>
<path fill="#0D75DE" opacity="1.000000" stroke="none" 
	d="
M428.136353,587.218384 
	C428.350403,587.445496 428.681305,587.944885 429.050995,588.745972 
	C428.810913,588.528625 428.532043,588.009705 428.136353,587.218384 
z"/>
<path fill="#0D75DE" opacity="1.000000" stroke="none" 
	d="
M423.211121,579.076782 
	C423.360931,579.053162 423.684418,579.231873 424.076569,579.719727 
	C423.891754,579.778931 423.638275,579.528992 423.211121,579.076782 
z"/>
<path fill="#02041D" opacity="1.000000" stroke="none" 
	d="
M535.185425,615.332764 
	C535.425232,615.079163 535.817627,615.138123 536.507690,615.219666 
	C539.238220,616.284058 541.671143,617.325745 544.378174,618.629028 
	C541.547607,617.808838 538.442749,616.727112 535.185425,615.332764 
z"/>
<path fill="#02041D" opacity="1.000000" stroke="none" 
	d="
M620.823730,680.581848 
	C620.225342,680.872620 619.495483,680.942627 618.401367,680.960144 
	C618.922180,680.725464 619.807190,680.543274 620.823730,680.581848 
z"/>
<path fill="#02041D" opacity="1.000000" stroke="none" 
	d="
M460.490479,470.506165 
	C460.426147,470.532684 460.419678,470.277618 460.475769,470.309998 
	C460.531891,470.342407 460.554810,470.479675 460.490479,470.506165 
z"/>
<path fill="#071723" opacity="1.000000" stroke="none" 
	d="
M489.986542,408.975555 
	C489.970276,408.957550 490.093597,408.973969 490.065979,409.000275 
	C490.038330,409.026581 490.002808,408.993561 489.986542,408.975555 
z"/>
</svg>